<?xml version="1.0" encoding="UTF-8"?>
<svg width="1024" height="1024" viewBox="0 0 1024 1024" fill="none" xmlns="http://www.w3.org/2000/svg">
  <rect width="1024" height="1024" fill="#0B1120"/>
  <path d="M512 192C334.635 192 192 334.635 192 512C192 689.365 334.635 832 512 832C689.365 832 832 689.365 832 512C832 334.635 689.365 192 512 192ZM512 768C370.897 768 256 653.103 256 512C256 370.897 370.897 256 512 256C653.103 256 768 370.897 768 512C768 653.103 653.103 768 512 768Z" fill="#3B82F6"/>
  <path d="M512 320C405.458 320 320 405.458 320 512C320 618.542 405.458 704 512 704C618.542 704 704 618.542 704 512C704 405.458 618.542 320 512 320ZM512 640C440.103 640 384 583.897 384 512C384 440.103 440.103 384 512 384C583.897 384 640 440.103 640 512C640 583.897 583.897 640 512 640Z" fill="#60A5FA"/>
  <circle cx="512" cy="512" r="64" fill="#93C5FD"/>
</svg> 