<?xml version="1.0" encoding="UTF-8"?>
<svg width="1024" height="1024" viewBox="0 0 1024 1024" fill="none" xmlns="http://www.w3.org/2000/svg">
  <rect width="1024" height="1024" fill="#0B1120"/>
  <path d="M512 256C379.635 256 272 363.635 272 496C272 628.365 379.635 736 512 736C644.365 736 752 628.365 752 496C752 363.635 644.365 256 512 256ZM512 688C406.897 688 320 601.103 320 496C320 390.897 406.897 304 512 304C617.103 304 704 390.897 704 496C704 601.103 617.103 688 512 688Z" fill="#3B82F6"/>
  <path d="M512 352C433.458 352 368 417.458 368 496C368 574.542 433.458 640 512 640C590.542 640 656 574.542 656 496C656 417.458 590.542 352 512 352ZM512 592C460.103 592 416 547.897 416 496C416 444.103 460.103 400 512 400C563.897 400 608 444.103 608 496C608 547.897 563.897 592 512 592Z" fill="#60A5FA"/>
  <circle cx="512" cy="496" r="48" fill="#93C5FD"/>
</svg> 